# xmcd
#
# Track frame offsets: 
#        150
#        52429
#        92420
#        138926
#
# Disc length: 2701 seconds
#
# Revision: 1
# Processed by: cddbd v1.5.2PL0 Copyright (c) Steve Scherf et al.
# Submitted via: ExactAudioCopy v0.95a4
#
DISCID=320a8b04
DTITLE=Martyrs of Sound - Mantra Chill
DYEAR=2007
DGENRE=Meditative
TTITLE0=Ong Namo
TTITLE1=Ocean
TTITLE2=Mool Mantra
TTITLE3=Within You Without You
EXTD=YEAR: 2007
EXTT0=
EXTT1=
EXTT2=
EXTT3=
PLAYORDER=
